<svg width="18" height="18" viewBox="0 0 18 18" fill="none" xmlns="http://www.w3.org/2000/svg">
<path fill-rule="evenodd" clip-rule="evenodd" d="M9 1.62158C11.4033 1.62158 11.6876 1.63087 12.6369 1.6741C13.5143 1.71411 13.9909 1.86059 14.3081 1.98384C14.7282 2.14711 15.028 2.34217 15.3431 2.65691C15.6582 2.97201 15.8532 3.27175 16.0162 3.69188C16.1394 4.00912 16.2859 4.4857 16.3259 5.36312C16.3691 6.31199 16.3784 6.59673 16.3784 8.99998C16.3784 11.4032 16.3691 11.6876 16.3259 12.6368C16.2859 13.5143 16.1394 13.9908 16.0162 14.3081C15.8529 14.7282 15.6578 15.028 15.3431 15.3431C15.028 15.6582 14.7282 15.8532 14.3081 16.0161C13.9909 16.1394 13.5143 16.2859 12.6369 16.3259C11.688 16.3691 11.4033 16.3784 9 16.3784C6.59674 16.3784 6.312 16.3691 5.36313 16.3259C4.48571 16.2859 4.00913 16.1394 3.69189 16.0161C3.27175 15.8529 2.97202 15.6578 2.65692 15.3431C2.34182 15.028 2.14675 14.7282 1.98384 14.3081C1.86059 13.9908 1.71412 13.5143 1.6741 12.6368C1.63088 11.688 1.62159 11.4032 1.62159 8.99998C1.62159 6.59673 1.63088 6.31235 1.6741 5.36312C1.71412 4.4857 1.86059 4.00912 1.98384 3.69188C2.14711 3.27175 2.34217 2.97201 2.65692 2.65691C2.97202 2.34181 3.27175 2.14675 3.69189 1.98384C4.00913 1.86059 4.48571 1.71411 5.36313 1.6741C6.31236 1.63087 6.59674 1.62158 9 1.62158ZM9 0C6.55565 0 6.24913 0.0103604 5.28918 0.0543029C4.33138 0.0978881 3.67724 0.250079 3.10456 0.472649C2.51258 0.702722 2.01064 1.01032 1.51048 1.51083C1.01032 2.01099 0.702366 2.51294 0.47265 3.10455C0.250079 3.67723 0.0978882 4.33137 0.054303 5.28917C0.0103604 6.24912 0 6.55564 0 8.99998C0 11.4443 0.0103604 11.7509 0.054303 12.7108C0.0978882 13.6686 0.250079 14.3227 0.47265 14.8954C0.702723 15.4874 1.01032 15.9893 1.51084 16.4895C2.01135 16.99 2.51294 17.2976 3.10491 17.5277C3.67724 17.7502 4.33173 17.9024 5.28954 17.946C6.24948 17.99 6.55601 18.0003 9.00036 18.0003C11.4447 18.0003 11.7512 17.99 12.7112 17.946C13.669 17.9024 14.3235 17.7502 14.8958 17.5277C15.4878 17.2976 15.9897 16.99 16.4899 16.4895C16.9904 15.989 17.298 15.4874 17.5281 14.8954C17.7506 14.3231 17.9028 13.6686 17.9464 12.7108C17.9904 11.7509 18.0007 11.4443 18.0007 8.99998C18.0007 6.55564 17.9904 6.24912 17.9464 5.28917C17.9028 4.33137 17.7506 3.67688 17.5281 3.10455C17.298 2.51258 16.9904 2.01063 16.4899 1.51048C15.9894 1.00996 15.4878 0.702365 14.8958 0.472292C14.3228 0.250079 13.6686 0.0978881 12.7108 0.0543029C11.7509 0.0103604 11.4443 0 9 0ZM8.99989 4.37842C6.44729 4.37842 4.37842 6.44765 4.37842 8.99989C4.37842 11.5521 6.44765 13.6214 8.99989 13.6214C11.5521 13.6214 13.6214 11.5521 13.6214 8.99989C13.6214 6.44765 11.5525 4.37842 8.99989 4.37842ZM8.99989 11.9998C7.34293 11.9998 6 10.6565 6 8.99989C6 7.34293 7.34329 6 8.99989 6C10.6565 6 11.9998 7.34329 11.9998 8.99989C11.9998 10.6568 10.6568 11.9998 8.99989 11.9998ZM14.8843 4.1957C14.8843 4.79216 14.4008 5.27569 13.8043 5.27569C13.2079 5.27569 12.7244 4.79216 12.7244 4.1957C12.7244 3.59925 13.2079 3.11572 13.8043 3.11572C14.4008 3.11572 14.8843 3.59925 14.8843 4.1957Z" fill="#39302A"/>
</svg>
