<svg width="15" height="15" viewBox="0 0 20 20" fill="none" xmlns="http://www.w3.org/2000/svg">
<path fill-rule="evenodd" clip-rule="evenodd" d="M0.833008 9.16634C0.833008 4.56397 4.56397 0.833008 9.16634 0.833008C13.7687 0.833008 17.4997 4.56397 17.4997 9.16634C17.4997 11.1674 16.7943 13.0038 15.6188 14.4403L19.1663 17.9878L17.9878 19.1663L14.4403 15.6188C13.0038 16.7943 11.1674 17.4997 9.16634 17.4997C4.56397 17.4997 0.833008 13.7687 0.833008 9.16634ZM9.16634 2.49967C5.48444 2.49967 2.49967 5.48444 2.49967 9.16634C2.49967 12.8483 5.48444 15.833 9.16634 15.833C12.8483 15.833 15.833 12.8483 15.833 9.16634C15.833 5.48444 12.8483 2.49967 9.16634 2.49967Z" fill="white"/>
</svg>
