<svg width="48" height="48" viewBox="0 0 48 48" fill="none" xmlns="http://www.w3.org/2000/svg">
<path d="M13.875 20C12.4931 20.0102 11.6616 20.0526 10.9993 20.228C7.98486 21.0262 5.92106 23.7278 6.00232 26.7694C6.02586 27.6504 6.36124 28.7392 7.032 30.917C8.64628 36.158 11.3593 40.7078 17.4369 41.7994C18.5541 42 19.8112 42 22.3254 42H25.6746C28.1888 42 29.446 42 30.5632 41.7994C36.6408 40.7078 39.3538 36.158 40.968 30.917C41.6388 28.7392 41.9742 27.6504 41.9976 26.7694C42.079 23.7278 40.0152 21.0262 37.0008 20.228C36.3384 20.0526 35.5068 20.0102 34.125 20" stroke="black" stroke-width="3" stroke-linecap="round"/>
<path d="M24 6V28M24 6C24.9368 6 25.6488 6.8762 27.0728 8.6286L29 11M24 6C23.0632 6 22.3512 6.8762 20.9272 8.6286L19 11" stroke="black" stroke-width="3" stroke-linecap="round" stroke-linejoin="round"/>
</svg>
